HIERARCHY
ROOT Hips
{
	OFFSET -14.64140 90.27770 -84.91600
	CHANNELS 6 Xposition Yposition Zposition Zrotation Xrotation Yrotation
	JOINT Spine
	{
		OFFSET 0.00000 13.20850 -1.60436
		CHANNELS 3 Zrotation Xrotation Yrotation
		JOINT Spine1
		{
			OFFSET 0.00000 8.61716 0.00000
			CHANNELS 3 Zrotation Xrotation Yrotation
			JOINT Spine2
			{
				OFFSET 0.00000 8.61717 0.00000
				CHANNELS 3 Zrotation Xrotation Yrotation
				JOINT Spine3
				{
					OFFSET 0.00000 8.61717 0.00000
					CHANNELS 3 Zrotation Xrotation Yrotation
					JOINT Neck
					{
						OFFSET 0.00000 11.07920 1.10792
						CHANNELS 3 Zrotation Xrotation Yrotation
						JOINT Neck1
						{
							OFFSET 0.00000 7.08032 0.00000
							CHANNELS 3 Zrotation Xrotation Yrotation
							JOINT Head
							{
								OFFSET 0.00000 7.08031 0.00000
								CHANNELS 3 Zrotation Xrotation Yrotation
								End site
								{
									OFFSET 0.00000 0.00000 0.00000
								}
							}
						}
					}
					JOINT RightShoulder
					{
						OFFSET -0.01000 7.91373 5.19711
						CHANNELS 3 Zrotation Xrotation Yrotation
						JOINT RightArm
						{
							OFFSET -18.41580 0.00000 0.00000
							CHANNELS 3 Zrotation Xrotation Yrotation
							JOINT RightForeArm
							{
								OFFSET -29.11090 0.00000 0.00000
								CHANNELS 3 Zrotation Xrotation Yrotation
								JOINT RightHand
								{
									OFFSET -24.65040 0.00000 0.00000
									CHANNELS 3 Zrotation Xrotation Yrotation
									JOINT RightHandThumb1
									{
										OFFSET -5.35114 -0.85590 3.97906
										CHANNELS 3 Zrotation Xrotation Yrotation
										JOINT RightHandThumb2
										{
											OFFSET -4.52789 0.00000 0.00000
											CHANNELS 3 Zrotation Xrotation Yrotation
											JOINT RightHandThumb3
											{
												OFFSET -2.46976 0.00000 0.00000
												CHANNELS 3 Zrotation Xrotation Yrotation
												End site
												{
													OFFSET 0.00000 0.00000 0.00000
												}
											}
										}
									}
									JOINT RightHandIndex1
									{
										OFFSET -14.26970 0.00000 2.88139
										CHANNELS 3 Zrotation Xrotation Yrotation
										JOINT RightHandIndex2
										{
											OFFSET -5.48836 0.00000 0.00000
											CHANNELS 3 Zrotation Xrotation Yrotation
											JOINT RightHandIndex3
											{
												OFFSET -3.01859 0.00000 0.00000
												CHANNELS 3 Zrotation Xrotation Yrotation
												End site
												{
													OFFSET 0.00000 0.00000 0.00000
												}
											}
										}
									}
									JOINT RightHandMiddle1
									{
										OFFSET -14.26970 0.00000 -0.09147
										CHANNELS 3 Zrotation Xrotation Yrotation
										JOINT RightHandMiddle2
										{
											OFFSET -6.17441 0.00000 0.00000
											CHANNELS 3 Zrotation Xrotation Yrotation
											JOINT RightHandMiddle3
											{
												OFFSET -3.56743 0.00000 0.00000
												CHANNELS 3 Zrotation Xrotation Yrotation
												End site
												{
													OFFSET 0.00000 0.00000 0.00000
												}
											}
										}
									}
									JOINT RightHandRing1
									{
										OFFSET -12.69180 0.00000 -3.06433
										CHANNELS 3 Zrotation Xrotation Yrotation
										JOINT RightHandRing2
										{
											OFFSET -5.62556 0.00000 0.00000
											CHANNELS 3 Zrotation Xrotation Yrotation
											JOINT RightHandRing3
											{
												OFFSET -3.56744 0.00000 0.00000
												CHANNELS 3 Zrotation Xrotation Yrotation
												End site
												{
													OFFSET 0.00000 0.00000 0.00000
												}
											}
										}
									}
									JOINT RightHandPinky1
									{
										OFFSET -11.11390 0.00000 -6.03719
										CHANNELS 3 Zrotation Xrotation Yrotation
										JOINT RightHandPinky2
										{
											OFFSET -4.52789 0.00000 0.00000
											CHANNELS 3 Zrotation Xrotation Yrotation
											JOINT RightHandPinky3
											{
												OFFSET -2.46976 0.00000 0.00000
												CHANNELS 3 Zrotation Xrotation Yrotation
												End site
												{
													OFFSET 0.00000 0.00000 0.00000
												}
											}
										}
									}
								}
							}
						}
					}
					JOINT LeftShoulder
					{
						OFFSET 0.01000 7.91373 5.19711
						CHANNELS 3 Zrotation Xrotation Yrotation
						JOINT LeftArm
						{
							OFFSET 18.41580 0.00000 0.00000
							CHANNELS 3 Zrotation Xrotation Yrotation
							JOINT LeftForeArm
							{
								OFFSET 29.11090 0.00000 0.00000
								CHANNELS 3 Zrotation Xrotation Yrotation
								JOINT LeftHand
								{
									OFFSET 24.65040 0.00000 0.00000
									CHANNELS 3 Zrotation Xrotation Yrotation
									JOINT LeftHandThumb1
									{
										OFFSET 5.35114 -0.85590 3.97906
										CHANNELS 3 Zrotation Xrotation Yrotation
										JOINT LeftHandThumb2
										{
											OFFSET 4.52789 0.00000 0.00000
											CHANNELS 3 Zrotation Xrotation Yrotation
											JOINT LeftHandThumb3
											{
												OFFSET 2.46977 0.00000 0.00000
												CHANNELS 3 Zrotation Xrotation Yrotation
												End site
												{
													OFFSET 0.00000 0.00000 0.00000
												}
											}
										}
									}
									JOINT LeftHandIndex1
									{
										OFFSET 14.26970 0.00000 2.88139
										CHANNELS 3 Zrotation Xrotation Yrotation
										JOINT LeftHandIndex2
										{
											OFFSET 5.48836 0.00000 0.00000
											CHANNELS 3 Zrotation Xrotation Yrotation
											JOINT LeftHandIndex3
											{
												OFFSET 3.01859 0.00000 0.00000
												CHANNELS 3 Zrotation Xrotation Yrotation
												End site
												{
													OFFSET 0.00000 0.00000 0.00000
												}
											}
										}
									}
									JOINT LeftHandMiddle1
									{
										OFFSET 14.26970 0.00000 -0.09147
										CHANNELS 3 Zrotation Xrotation Yrotation
										JOINT LeftHandMiddle2
										{
											OFFSET 6.17440 0.00000 0.00000
											CHANNELS 3 Zrotation Xrotation Yrotation
											JOINT LeftHandMiddle3
											{
												OFFSET 3.56744 0.00000 0.00000
												CHANNELS 3 Zrotation Xrotation Yrotation
												End site
												{
													OFFSET 0.00000 0.00000 0.00000
												}
											}
										}
									}
									JOINT LeftHandRing1
									{
										OFFSET 12.69180 0.00000 -3.06433
										CHANNELS 3 Zrotation Xrotation Yrotation
										JOINT LeftHandRing2
										{
											OFFSET 5.62556 0.00000 0.00000
											CHANNELS 3 Zrotation Xrotation Yrotation
											JOINT LeftHandRing3
											{
												OFFSET 3.56744 0.00000 0.00000
												CHANNELS 3 Zrotation Xrotation Yrotation
												End site
												{
													OFFSET 0.00000 0.00000 0.00000
												}
											}
										}
									}
									JOINT LeftHandPinky1
									{
										OFFSET 11.11390 0.00000 -6.03719
										CHANNELS 3 Zrotation Xrotation Yrotation
										JOINT LeftHandPinky2
										{
											OFFSET 4.52789 0.00000 0.00000
											CHANNELS 3 Zrotation Xrotation Yrotation
											JOINT LeftHandPinky3
											{
												OFFSET 2.46976 0.00000 0.00000
												CHANNELS 3 Zrotation Xrotation Yrotation
												End site
												{
													OFFSET 0.00000 0.00000 0.00000
												}
											}
										}
									}
								}
							}
						}
					}
					JOINT pCube4
					{
						OFFSET 0.00000 10.91090 1.10792
						CHANNELS 3 Zrotation Xrotation Yrotation
						End site
						{
							OFFSET 0.00000 0.00000 0.00000
						}
					}
				}
			}
		}
	}
	JOINT RightUpLeg
	{
		OFFSET -9.98441 0.00000 0.00000
		CHANNELS 3 Zrotation Xrotation Yrotation
		JOINT RightLeg
		{
			OFFSET 0.00000 -42.11790 0.00000
			CHANNELS 3 Zrotation Xrotation Yrotation
			JOINT RightFoot
			{
				OFFSET 0.00000 -45.00020 -0.00001
				CHANNELS 3 Zrotation Xrotation Yrotation
				JOINT RightForeFoot
				{
					OFFSET 0.00000 -3.74820 0.00000
					CHANNELS 3 Zrotation Xrotation Yrotation
					JOINT RightToeBase
					{
						OFFSET 0.00000 0.06325 14.43120
						CHANNELS 3 Zrotation Xrotation Yrotation
						End site
						{
							OFFSET 0.00000 0.00000 0.00000
						}
					}
				}
			}
		}
	}
	JOINT LeftUpLeg
	{
		OFFSET 9.98441 0.00000 0.00000
		CHANNELS 3 Zrotation Xrotation Yrotation
		JOINT LeftLeg
		{
			OFFSET 0.00000 -42.11800 0.00000
			CHANNELS 3 Zrotation Xrotation Yrotation
			JOINT LeftFoot
			{
				OFFSET 0.00000 -45.00070 0.00000
				CHANNELS 3 Zrotation Xrotation Yrotation
				JOINT LeftForeFoot
				{
					OFFSET 0.00000 -3.74824 0.00000
					CHANNELS 3 Zrotation Xrotation Yrotation
					JOINT LeftToeBase
					{
						OFFSET 0.00000 0.06325 14.43110
						CHANNELS 3 Zrotation Xrotation Yrotation
						End site
						{
							OFFSET 0.00000 0.00000 0.00000
						}
					}
				}
			}
		}
	}
}
MOTION
Frames: 4
Frame Time: 0.050000
0.019690101301028072 0.048059008014236376 -0.008436822248462329 0.03290836308479756 0.02140810170228026 0.017876642709610886 4.448367858772017 3.0371262725333286 -2.058166623094272 -0.6938684546426364 3.56432655654813 0.332740444769764 -0.6739065223601306 -1.2758739292984942 0.6940378165862293 -0.3462472005671319 -0.5785077848131717 -0.36547211386475614 0.2526033465891951 13.321786983067627 -2.047994090253439 0.40016919941455975 -0.03032239870928913 -4.653424661903079 1.1338536661046101 -16.048048471876637 -0.450706654653662 -11.134239072741712 3.7636123557984456 -17.12088876173769 78.40783652038421 -4.059455448587988 19.972322629689742 11.459099386616527 3.8876899556631788 80.37461585531427 13.18637885847839 -0.3359225033650313 -1.5663929200740165 4.555073733441068 -0.1119312872886849 -1.5994223265501453 0.005193458312239125 -0.047545940252456384 -56.28060374449942 0.0027412345747373098 0.036531695878523014 -56.211368808892125 -38.73234087789055 -0.015149143315172326 0.007094367690899841 0.023296017650278753 -0.038122055954997895 0.046412923038895805 -0.023124220996125905 -0.019947385386207002 0.048977304701337064 -36.688865372765214 0.01282476085124233 0.03345220757259491 0.01322250845393879 -0.004883262988604917 0.015427978603532892 0.04026250762003769 0.0007594711712934031 0.03552846841591529 -19.76452526612803 -0.03947013825914958 0.048787024761618426 -0.005574851480320523 -0.0433404036999902 -0.029408582899103988 0.01222411601915486 0.02247203612275391 -0.032337058809661506 24.08117777780278 0.0016014058415765946 0.0035200758562618523 28.887002521760863 0.03558312682765912 0.03558041338750837 28.908296935633803 0.04791299185820625 0.04740854387503903 11.127569947349434 2.638777409374693 14.449175131562226 -69.911909923283 12.368420770061613 -22.93761894560322 -5.240255572045474 -1.4059114168254352 -84.3801064037051 -15.34453770152095 -0.3707330012760838 -2.1468123198955547 -0.4840507446014329 0.1103480713777624 -8.117813607605108 0.04327396701739781 0.0016123651794720225 44.53135009949989 -0.017346680657401317 -0.021244115578783064 44.568834095002565 12.450562072506251 -0.015095991781590911 -0.020830439868719533 -0.019859709946382236 0.031542033156187775 -0.03295153724483281 -0.047435059988448866 -0.0441204375822718 -0.04833965663988013 11.112351649145708 -0.01168571171391165 0.014949057310653864 0.021529177616219412 0.0015237709249662265 -0.04166970447343506 0.04825426190339643 0.01542062826493221 -0.010613159639016165 4.730862014085297 -0.003755848930835838 -0.02667369213200417 0.005543775072731375 -0.02330833265030484 0.02272940804899072 0.01759696999873614 0.0413528681026063 0.009908794379244256 -5.594903827616191 -0.033562429150644446 -0.046177888992589955 -6.709857146316868 0.028551482070733606 0.04043631629406403 -6.706017541053195 -0.001765660306712458 -0.004840205464366817 -0.006680898509031565 -0.010157582062437599 -0.022646594961237023 8.059339261699623 3.4796659218715043 -19.203858616917806 0.0007930841210146589 10.397809301820224 -0.005333968383078085 -5.653164908335154 -15.70456836100598 3.198841676798427 -0.029199266774812885 -0.008022056968345735 -0.04930661457036174 0.0300264435323536 4.6794448539366575 0.039106847834314125 12.450611705013232 -8.255751620458879 6.892940984259568 -0.0254969859937436 46.36817850087552 -0.04400609182159821 -4.290026484549826 -14.772143180012613 -3.855160593892304 0.04742292117941353 -0.030194781302004123 0.007978908034987848 0.041959703670662776 -10.6971751959015 -0.013623533414595872 
0.029064328269351875 -0.014883328421498074 0.041728761228987235 0.01890649951721091 -0.046828899267525544 -0.02251037859716693 4.527780996698682 2.779503270957339 -2.1038629290650643 -0.769468759126291 3.5412066727844294 0.3560699164823937 -0.7095066555583076 -1.349455907182243 0.613572451990627 -0.4289496450852814 -0.5743702322933548 -0.29581109140857775 0.11540038512736328 13.760629664035017 -1.7471634748229654 0.4123750790391832 0.2236343590071629 -3.8874266177799983 1.0360955090686825 -15.768906285073411 -0.3549182156518752 -11.765529072332287 3.9153573908322348 -16.833891386552985 78.73666617476303 -5.104155977188845 24.21028332135381 13.509906821279763 3.2876021083764355 84.64118280363556 12.370769025690883 -0.3147329054327703 -1.510568009000039 4.528120940791342 -0.11679351338813183 -1.5753403359816476 -0.032883379619053424 0.0205293284951868 -56.26843406262452 0.03472479151026628 -0.028071052963115302 -56.27665745323185 -38.793387690713786 0.009948125014310956 0.0237788421301762 0.002759110994716228 -0.022590554169656763 0.04754221171187929 0.02528727823866309 -0.03554956930786927 0.03492381052729909 -36.713915470194 0.04833657394153059 -0.04131378540514545 0.04424527964843147 -0.034954608351056904 -0.012576764940953802 0.013984007288496808 0.008861140456212948 0.03533118904155337 -19.748342862663108 -0.03485104648986876 0.005217769499422879 0.02144082816601179 -0.01784232732907744 0.04280236547456001 -0.020623567777867908 0.018203897666301757 -0.018443061410260454 24.06876588699627 -0.0004385977729905235 -0.017293735964937544 28.833316256440607 0.004029718110782289 -0.029380683459640844 28.849570131672326 -0.012374728992997528 0.005607529779260317 11.881058935066948 2.790078803914969 14.297607327119017 -70.04645994903338 12.032320601314572 -27.493742520002115 -3.9146208688375603 -3.188089249699649 -89.34528660707414 -13.535683978121783 0.1408214501270783 -3.1741989458897213 -0.45219269778688187 0.09962251275927833 -8.090070741264595 -0.0253217011639056 -0.025518040674699993 44.59472990066886 0.023699468218236496 -0.03388855405730545 44.55004895829619 12.491008420598506 0.02418538193903085 0.042483337189516156 0.009002643663338443 0.04312302719330672 0.04683655026021285 0.008975745432283857 0.037079203142956624 0.03685937607560591 11.079640901263573 0.037050492328348165 -0.017003911658242398 -0.028511383795654533 -0.015635838705689617 0.03200722168762909 -0.02926101187419927 0.010286495763578225 0.027448817613553986 4.741851056247974 0.03396241748353468 0.006822975799205048 -0.03261612929801111 0.03397350005415555 0.012978415019831638 0.01041615347998986 -0.04809884445648333 0.02019229970884617 -5.591295786484652 0.012091206757792685 -0.03336811309125738 -6.70288162118145 0.04013105244741391 -0.04630893640458894 -6.737300749431697 -0.03038386634611064 0.03688403988130363 -0.012778009165432612 0.03190546905000723 -0.0063296023372674485 8.081204955061114 3.460256038669083 -19.20363889113382 -0.017543903387411065 10.382304977854364 0.04916516421189218 -5.602179242864944 -15.673393640169845 3.1796469974892516 0.0207678468863212 0.030029227587718667 0.03711640768760098 0.02206789064749575 4.72376701163823 -0.03231782695538565 12.505595763775672 -8.217807196069085 6.920435770140453 0.02658458453586863 46.406772824487 -0.026904829746657515 -4.3336327088066025 -14.717588188437663 -3.7913842367503023 -0.0385994650636904 -0.02602177611981742 0.015174170096913799 0.01012269608003877 -10.770298743397642 0.021865883305621423 
-0.027882949154990025 -0.02726011769347364 0.0057875726188612335 0.0014921266400752611 0.0010273415658753873 0.002298960786667279 4.591124037404668 2.5790495119399908 -2.175711922083009 -0.7033296074082015 3.53657733066643 0.3813221311201066 -0.6592727162185299 -1.3834575816484906 0.5627518105195366 -0.5309070167566148 -0.5580357069396075 -0.29564515593223356 0.045200777013917566 14.011338860270488 -1.442240150322328 0.41135372575493734 0.3541581362141586 -2.997045982073085 0.9288075712430605 -15.523960983061732 -0.2576916558372732 -12.078347554409172 4.025138819370515 -16.587449513348453 78.89843220658457 -5.526722112609114 27.03837992354532 14.112984045749245 2.752836077211509 87.14440623024227 11.694565449170305 -0.23729803364620186 -1.296932135192232 4.563563732503037 -0.15691123250300587 -1.635011460498754 -0.027139550854564678 0.00789827165977405 -56.19285774402463 0.028997142707443406 0.03769182916581624 -56.239224317271564 -38.76124510325389 -0.036393592821512916 0.04466649421399058 -0.02096482590476691 -0.047886735961102954 -0.02052229100445736 0.03488205116892513 0.019956964937399055 -0.017027155790415745 -36.743790471542034 -0.007140559796798796 -0.041701707465868834 0.04475704755717442 0.02453326093518188 0.02769937823449904 -0.030118446805098557 -0.027244804202392375 0.008620669789890116 -19.807954057238636 0.01934121997472303 0.011608382287758737 0.01132690416165057 -0.04716774062405215 -0.048692904323468525 0.036917860731671664 0.021706230996481595 0.014085433123249239 24.057688407133192 -0.02228452774139326 0.001955446973082926 28.84774457818335 0.030135758097959698 0.008381024725540484 28.874759215713787 -0.027002898226587704 0.025867701589147404 12.60639649829472 2.91248300072904 14.151051752777438 -70.15806231835339 11.678003150320095 -31.807438468588217 -2.117404139041525 -4.608708795682376 -92.77011025557162 -11.685417055077579 0.9386454052758557 -4.34200929168171 -0.44883575580808605 0.04675131996108668 -8.09859660916409 0.005544993663733551 0.00594124905468451 44.550203404887775 -0.0027715243288651643 0.04767005439005494 44.551706232940404 12.450370987992459 0.03818940839050034 0.006055157573628156 0.01570059159359136 -0.004433187799285562 0.0014978352822919568 -0.04396934021659528 -0.015351219907082858 0.024956926184549522 11.06057934601896 0.03991030351848003 -0.004590928392273819 -0.0007741458370366935 0.03971172831127381 -0.005473211557789575 0.017735546685933953 0.030114930088399355 0.008825421720592145 4.78901008468822 -0.02046963417049643 -0.006892927944928536 0.00972594282139247 0.043049789993796564 0.0019341959721794592 -0.01814170372077248 -0.02411270421799334 0.007015760659086013 -5.592919412912747 -0.015341143344061935 -0.007976112067314892 -6.706572000929218 -0.03646595286764734 -0.004949211905890584 -6.750685136257932 0.023036925414856347 0.01789410383121288 -0.031212881989665372 0.04158892406282546 -0.0003508456846561731 8.053803737866932 3.505398710045876 -19.20583054208368 0.029930448350434694 10.382124955545466 -0.020813868902099967 -5.626524235734221 -15.666227201254342 3.1445547442891626 -0.008144737590833317 -0.03832279438921986 0.03172580817320481 0.013414250215084807 4.6736438056765035 0.015057584877897896 12.428323756777276 -8.280043523024414 6.880940073318174 -0.02575324795693029 46.349258341919054 0.015112996728698397 -4.294215451685046 -14.779037475497123 -3.794223088605693 -0.029549078762445603 0.008609439092992591 -0.02975322431678121 0.02611989022353056 -10.724267452204094 0.01949987685425861 
0.031235014786027915 0.02983208322791498 -0.001397085124697767 -0.021372704997257644 -0.015385182544827897 0.02824148482006161 4.65287657935145 2.5229154067461916 -2.187338800591462 -0.6783465649100937 3.477155709200004 0.35522597667467737 -0.6121414394397134 -1.499286591862437 0.38050277432426155 -0.5862702055614567 -0.5375031572467672 -0.3451626342902315 -0.019107501033658488 14.259770753494998 -1.2762094909884376 0.4348153822811985 0.4971739429495593 -2.3468172533680356 0.8409513020397964 -15.249093719957413 -0.19988113457926857 -12.216696123036238 4.052236048435812 -16.37526779709318 79.1320784419905 -4.869317753277552 29.002504922130576 13.418009537020145 2.317274859058751 88.79063588084716 11.034384749987774 -0.29951007043719113 -0.9614712750808602 4.566689677286924 -0.08319552421480036 -1.6025960752940518 0.007864241087302805 -0.03490423753400993 -56.19772330080178 -0.032093565331366834 -0.016762792111313787 -56.22133363930902 -38.73785647927267 -0.04532260706700159 -0.027519497759607936 0.03651671101940899 -0.04671334647310056 -0.022059018434774435 -0.011639203472084426 0.005397694837494277 0.024083964035619826 -36.74199026984554 -0.009701073418244091 0.04304402134689172 0.011538087380578729 0.03278933457811129 -0.022462849196689456 -0.016077445049074723 0.010504189485660393 0.04382898201727843 -19.76453931623623 -0.005075580681872045 0.030706341833704576 -0.03407233750742096 0.038286562198550866 -0.01629747070151355 0.026485052079034562 0.03477773570977089 0.032144001946381444 24.049034676749084 0.04205051187874978 0.008490405413289671 28.86201298182495 -0.0027969128997529487 -0.024442587518572576 28.91317239097409 0.04793302599429368 0.007940076987408997 13.094812291751873 2.9905870745478813 13.97665326543045 -70.6353532398132 11.774272292648503 -36.258648915221485 0.5253256473667839 -5.819956702118945 -95.19165244762972 -9.991500667982223 2.090258102493078 -5.542861200850723 -0.44116346291618647 0.024224576471448864 -8.173216912256125 0.005368523950792905 0.04271799380492492 44.53769106647713 0.008842292361165172 0.004980811587239583 44.54643781658756 12.459951332280328 -0.01728725407219107 -0.01264138028337768 0.041719001812215065 -0.00464364390199428 -0.013616527482738498 0.015444415177857364 0.023763541974100584 0.01795420746301536 11.149528756076576 0.025586251732223918 -0.03213894219077007 0.004115764291440285 -0.040045754212443316 0.014090367092111417 0.044713955426187196 0.03642544873568124 -0.04768981281199265 4.779180290520819 0.027454428856914057 0.0007839283255426343 0.010237205648258566 -0.011392890804248153 -0.023484003518007807 0.040500343893870305 -0.010154668558921347 0.012592895482689161 -5.581560626634895 0.017923012730146022 -0.02257825877303606 -6.7546984104904535 0.019690467838418584 -0.03965693843508511 -6.73626539219096 -0.012090510769433892 -0.04477363773764277 0.019679744500997288 -0.04091853889758722 -0.01995961311929709 8.024762445470193 3.453675579156015 -19.20919408150328 -0.0013449587795221203 10.398122880101383 -0.025014757016573828 -5.661741637596601 -15.656058047504176 3.196986957749642 -0.0072430685446938 0.046150614027957046 -0.046072733275285264 0.03239514740276582 4.736696001038247 0.03124204091237272 12.417246318990625 -8.273421733937482 6.897621567869952 -0.016238205633045323 46.37118468527785 0.04220236382131237 -4.341821027286932 -14.762655397556035 -3.8221620045117883 0.03968114686030568 -0.03459464364892068 -0.0031642948018561824 0.022908007127213994 -10.727339574189708 0.002477035273308198 
